<svg width="24" height="24" viewBox="0 0 24 24" fill="none" xmlns="http://www.w3.org/2000/svg">
<mask id="mask0_236_67" style="mask-type:alpha" maskUnits="userSpaceOnUse" x="0" y="0" width="24" height="24">
<rect width="24" height="24" fill="#D9D9D9"/>
</mask>
<g mask="url(#mask0_236_67)">
<path d="M6 12.0498C6 12.3165 6.01667 12.579 6.05 12.8373C6.08333 13.0956 6.14167 13.3498 6.225 13.5998C6.30833 13.8831 6.3 14.154 6.2 14.4123C6.1 14.6706 5.925 14.8581 5.675 14.9748C5.40833 15.1081 5.14583 15.1206 4.8875 15.0123C4.62917 14.904 4.45833 14.7081 4.375 14.4248C4.24167 14.0415 4.14583 13.6498 4.0875 13.2498C4.02917 12.8498 4 12.4498 4 12.0498C4 9.81647 4.775 7.91647 6.325 6.3498C7.875 4.78314 9.76667 3.9998 12 3.9998H12.175L11.275 3.0998C11.0917 2.91647 11 2.68314 11 2.3998C11 2.11647 11.0917 1.88314 11.275 1.6998C11.4583 1.51647 11.6917 1.4248 11.975 1.4248C12.2583 1.4248 12.4917 1.51647 12.675 1.6998L15.275 4.2998C15.475 4.4998 15.575 4.73314 15.575 4.9998C15.575 5.26647 15.475 5.4998 15.275 5.6998L12.675 8.2998C12.4917 8.48314 12.2583 8.5748 11.975 8.5748C11.6917 8.5748 11.4583 8.48314 11.275 8.2998C11.0917 8.11647 11 7.88314 11 7.5998C11 7.31647 11.0917 7.08314 11.275 6.8998L12.175 5.9998H12C10.3333 5.9998 8.91667 6.5873 7.75 7.7623C6.58333 8.9373 6 10.3665 6 12.0498ZM18 11.9498C18 11.6831 17.9833 11.4206 17.95 11.1623C17.9167 10.904 17.8583 10.6498 17.775 10.3998C17.6917 10.1165 17.7 9.84564 17.8 9.58731C17.9 9.32897 18.075 9.14147 18.325 9.0248C18.5917 8.89147 18.8542 8.87897 19.1125 8.9873C19.3708 9.09564 19.5417 9.29147 19.625 9.57481C19.7583 9.95814 19.8542 10.3498 19.9125 10.7498C19.9708 11.1498 20 11.5498 20 11.9498C20 14.1831 19.225 16.0831 17.675 17.6498C16.125 19.2165 14.2333 19.9998 12 19.9998H11.825L12.725 20.8998C12.9083 21.0831 13 21.3165 13 21.5998C13 21.8831 12.9083 22.1165 12.725 22.2998C12.5417 22.4831 12.3083 22.5748 12.025 22.5748C11.7417 22.5748 11.5083 22.4831 11.325 22.2998L8.725 19.6998C8.525 19.4998 8.425 19.2665 8.425 18.9998C8.425 18.7331 8.525 18.4998 8.725 18.2998L11.325 15.6998C11.5083 15.5165 11.7417 15.4248 12.025 15.4248C12.3083 15.4248 12.5417 15.5165 12.725 15.6998C12.9083 15.8831 13 16.1165 13 16.3998C13 16.6831 12.9083 16.9165 12.725 17.0998L11.825 17.9998H12C13.6667 17.9998 15.0833 17.4123 16.25 16.2373C17.4167 15.0623 18 13.6331 18 11.9498Z" fill="#D8D8D8"/>
</g>
</svg>
